<svg width="256" height="256" viewBox="0 0 256 256" fill="none" xmlns="http://www.w3.org/2000/svg">
  <defs>
    <linearGradient id="g" x1="0" y1="0" x2="256" y2="256" gradientUnits="userSpaceOnUse">
      <stop offset="0" stop-color="#34d399"/>
      <stop offset="1" stop-color="#60a5fa"/>
    </linearGradient>
  </defs>
  <rect width="256" height="256" fill="none"/>
  <path d="M128 44l76 28v42c0 46-30 88-76 110-46-22-76-64-76-110V72l76-28z" stroke="url(#g)" stroke-width="10" stroke-linecap="round" stroke-linejoin="round" fill="none"/>
  <path d="M40 128c18-24 52-48 88-48s70 24 88 48c-18 24-52 48-88 48s-70-24-88-48z" stroke="url(#g)" stroke-width="10" fill="none"/>
  <circle cx="128" cy="128" r="22" stroke="url(#g)" stroke-width="10" fill="none"/>
  <circle cx="128" cy="128" r="6" fill="url(#g)"/>
  <path d="M64 176v16m24-8v20m40-16v20m40-24v20" stroke="url(#g)" stroke-width="10" stroke-linecap="round"/>
</svg>


